<?xml version="1.0" standalone="no"?>
<svg xmlns:xlink="http://www.w3.org/1999/xlink" id="wave" style="transform:rotate(180deg); transition: 0.3s" viewBox="0 0 1440 490" version="1.1" xmlns="http://www.w3.org/2000/svg"><defs><linearGradient id="sw-gradient-0" x1="0" x2="0" y1="1" y2="0"><stop stop-color="rgba(255, 239, 191, 1)" offset="0%"/><stop stop-color="rgba(255, 242, 204, 1)" offset="100%"/></linearGradient></defs><path style="transform:translate(0, 0px); opacity:1" fill="url(#sw-gradient-0)" d="M0,294L60,294C120,294,240,294,360,285.8C480,278,600,261,720,212.3C840,163,960,82,1080,65.3C1200,49,1320,98,1440,122.5C1560,147,1680,147,1800,196C1920,245,2040,343,2160,359.3C2280,376,2400,310,2520,310.3C2640,310,2760,376,2880,343C3000,310,3120,180,3240,130.7C3360,82,3480,114,3600,106.2C3720,98,3840,49,3960,73.5C4080,98,4200,196,4320,253.2C4440,310,4560,327,4680,343C4800,359,4920,376,5040,392C5160,408,5280,425,5400,416.5C5520,408,5640,376,5760,367.5C5880,359,6000,376,6120,359.3C6240,343,6360,294,6480,236.8C6600,180,6720,114,6840,122.5C6960,131,7080,212,7200,277.7C7320,343,7440,392,7560,408.3C7680,425,7800,408,7920,334.8C8040,261,8160,131,8280,73.5C8400,16,8520,33,8580,40.8L8640,49L8640,490L8580,490C8520,490,8400,490,8280,490C8160,490,8040,490,7920,490C7800,490,7680,490,7560,490C7440,490,7320,490,7200,490C7080,490,6960,490,6840,490C6720,490,6600,490,6480,490C6360,490,6240,490,6120,490C6000,490,5880,490,5760,490C5640,490,5520,490,5400,490C5280,490,5160,490,5040,490C4920,490,4800,490,4680,490C4560,490,4440,490,4320,490C4200,490,4080,490,3960,490C3840,490,3720,490,3600,490C3480,490,3360,490,3240,490C3120,490,3000,490,2880,490C2760,490,2640,490,2520,490C2400,490,2280,490,2160,490C2040,490,1920,490,1800,490C1680,490,1560,490,1440,490C1320,490,1200,490,1080,490C960,490,840,490,720,490C600,490,480,490,360,490C240,490,120,490,60,490L0,490Z"/><defs><linearGradient id="sw-gradient-1" x1="0" x2="0" y1="1" y2="0"><stop stop-color="rgba(255, 224.341, 133.499, 1)" offset="0%"/><stop stop-color="rgba(255, 242, 204, 1)" offset="100%"/></linearGradient></defs><path style="transform:translate(0, 50px); opacity:0.9" fill="url(#sw-gradient-1)" d="M0,392L60,359.3C120,327,240,261,360,261.3C480,261,600,327,720,294C840,261,960,131,1080,138.8C1200,147,1320,294,1440,294C1560,294,1680,147,1800,73.5C1920,0,2040,0,2160,73.5C2280,147,2400,294,2520,359.3C2640,425,2760,408,2880,383.8C3000,359,3120,327,3240,269.5C3360,212,3480,131,3600,114.3C3720,98,3840,147,3960,155.2C4080,163,4200,131,4320,155.2C4440,180,4560,261,4680,302.2C4800,343,4920,343,5040,359.3C5160,376,5280,408,5400,408.3C5520,408,5640,376,5760,326.7C5880,278,6000,212,6120,220.5C6240,229,6360,310,6480,326.7C6600,343,6720,294,6840,245C6960,196,7080,147,7200,138.8C7320,131,7440,163,7560,220.5C7680,278,7800,359,7920,351.2C8040,343,8160,245,8280,196C8400,147,8520,147,8580,147L8640,147L8640,490L8580,490C8520,490,8400,490,8280,490C8160,490,8040,490,7920,490C7800,490,7680,490,7560,490C7440,490,7320,490,7200,490C7080,490,6960,490,6840,490C6720,490,6600,490,6480,490C6360,490,6240,490,6120,490C6000,490,5880,490,5760,490C5640,490,5520,490,5400,490C5280,490,5160,490,5040,490C4920,490,4800,490,4680,490C4560,490,4440,490,4320,490C4200,490,4080,490,3960,490C3840,490,3720,490,3600,490C3480,490,3360,490,3240,490C3120,490,3000,490,2880,490C2760,490,2640,490,2520,490C2400,490,2280,490,2160,490C2040,490,1920,490,1800,490C1680,490,1560,490,1440,490C1320,490,1200,490,1080,490C960,490,840,490,720,490C600,490,480,490,360,490C240,490,120,490,60,490L0,490Z"/></svg>